<svg xmlns="http://www.w3.org/2000/svg" viewBox="0 0 645 875" width="40">
  <path d="M749.21 4.461c-5.8-5.998-15.4-5.898-21.3 0l-25.101 25.191c-5.9 5.898-5.9 15.495-.4 21.593 68.6 75.773 105.501 165.942 105.601 270.605.1 105.064-36.8 195.532-105.901 271.805-5.6 6.198-5.5 15.795.4 21.693l25.2 25.191c5.9 5.898 15.5 5.998 21.3 0 169.203-175.839 166.703-463.638.2-636.078zM400.304 23.754c7.342-6.274-117.62 110.713-166.702 157.445-5.9 5.598-12.601 8.397-21.101 8.297-52.434-.143-104.868-.188-157.302-.2V455c45.057 1.834 106.014.64 156.603.304 6.6-.1 11.5 1.799 16.3 6.297 56.3 51.093 135.013 126.39 174.902 161.944 4.6 4.099 8.3.5 8.3-7.797V28.453c0-8.297-5-10.397-11-4.699zm254.303 74.974c-5.8-5.898-15.6-5.698-21.5.2l-24.5 24.591c-5.9 5.898-6 15.495-.5 21.793 43.4 49.882 66.8 108.762 66.8 177.038 0 68.476-23.7 127.556-67.3 177.738-5.5 6.298-5.4 15.894.5 21.792l24.9 24.892c5.9 5.898 15.5 5.998 21.2-.1 123.902-132.054 109.102-337.083.4-447.944Zm-93.4 94.467c-5.501-6.198-15.301-5.998-21.101-.1l-25.5 25.591c-5.9 5.898-5.9 15.495-.8 21.993 18.1 23.091 27.9 50.482 27.9 81.671 0 31.589-10.1 59.08-28.4 82.371-5.1 6.498-5.1 16.095.8 21.993l25.5 25.49c5.9 5.899 15.6 5.999 21.1-.2 64.8-72.574 62.8-189.033.5-258.809zM-.25 188.95 0 455h33.8V189l-33.55.05z" style="stroke-width:.999835"/>
</svg>
