<svg xmlns="http://www.w3.org/2000/svg" width="40" viewBox="0 0 54 40" height="40">
  <circle style="fill:#000" cx="27" cy="20" r="10"/>
  <circle style="fill:#fff" cx="27" cy="20" r="5"/>
  <path style="fill:#000;stroke-width:.998992" d="M32.5.984 27-7 21.5.984c1.013.018 1.988-.02 3 0v5.988h5V.984Zm-11 38.032L27 47l5.5-7.984c-1.012-.018-1.987.02-3 0v-5.988h-5v5.988zM8 14.456l-8 5.49 8 5.489c.018-1.01-.02-1.983 0-2.994h6v-4.99H8Zm38 10.979 8-5.49-8-5.488c-.018 1.01.02 1.984 0 2.994h-6v4.99h6z"/>
</svg>
