<svg xmlns="http://www.w3.org/2000/svg" viewBox="0 0 100 100">
  <path d="M61.2 71.1h-22c-.6 0-1-.4-1-1v-40c0-.6.4-1 1-1h22c.6 0 1 .4 1 1v40c0 .5-.5 1-1 1zm-21-2h20v-38h-20v38z" fill="#fff"/>
  <path d="M52.7 34.1h-5c-.6 0-1-.4-1-1s.4-1 1-1h5c.6 0 1 .4 1 1s-.5 1-1 1zM50.2 68.1c-1.4 0-2.5-1.1-2.5-2.5s1.1-2.5 2.5-2.5 2.5 1.1 2.5 2.5-1.2 2.5-2.5 2.5zm0-3.7c-.6 0-1.1.5-1.1 1.1 0 .6.5 1.1 1.1 1.1.6 0 1.1-.5 1.1-1.1 0-.6-.5-1.1-1.1-1.1z" fill="#fff"/>
  <path d="M77.3 42.4c-.4.4-.4 1 0 1.4l3.2 3.2H66v2h14.6l-3.2 3.3c-.4.4-.4 1 0 1.4s1 .4 1.4 0l5-4.9c.2-.2.3-.4.3-.7s-.1-.5-.3-.7l-5-4.9c-.4-.5-1.1-.5-1.5-.1zM22.7 53.7c.4-.4.4-1 0-1.4l-3.2-3.2H34v-2H19.4l3.2-3.3c.4-.4.4-1 0-1.4s-1-.4-1.4 0l-5 4.9c-.1.2-.2.5-.2.7s.1.5.3.7l5 4.9c.3.5 1 .5 1.4.1z" fill="#fff" />
</svg>
