<svg xmlns="http://www.w3.org/2000/svg" viewBox="0 0 100 100">
  <path d="M46.2 61.6h-1v-2.7c-1-.8-1.7-2-1.7-3.3.3-2.8-2.1-6.8-3.1-8.4l-.6-.9-.5-.7.1-.1c-1-1.9-1.5-4-1.5-6.1C38 32 44 26 51.3 26s13.4 6 13.4 13.4c0 2.1-.5 4.2-1.5 6.1v.1l-.5.7-.6.9c-1 1.5-3.3 5.5-3 8.1 0 1.2 0 3-1 4v2.1h-6.9c-2.1.2-4.2.2-5 .2zm-4.6-16.4c.2.3.4.6.6.8 1.4 2.2 3.7 6.4 3.4 9.6 0 .7.4 1.4 1.1 1.8l.5.3v1.9h8.9v-1.2l.5-.3c.5-.3.5-1.9.5-2.5-.3-3.1 2-7.2 3.4-9.4l.6-.9.1-.1c1-1.7 1.6-3.7 1.6-5.7 0-6.3-5.1-11.4-11.4-11.4S40 33.1 40 39.4c0 2 .5 4 1.6 5.8zM45 62.7h13v2H45zM45 65.6h13v2H45zM48 68.7h7v2h-7z" fill="#fff"/>
</svg>
