<svg xmlns="http://www.w3.org/2000/svg" viewBox="0 0 1000 1000" width="40">
  <path d="M769.8 691.8c-13.2-4.8-26.5-9.7-39.1-15.8-26.3-12.7-40.7-34.3-41.2-63.4-.4-29.1 13.2-51.1 39.2-64.6 8.9-4.6 18.3-8.5 27.8-11.6 15.4-4.9 22.1-15.8 20.9-30.9-2.8-34.4-14.8-65.5-37.5-91.9-10.2-11.9-22.7-15.8-37.8-8.4-8.1 3.9-16.8 6.6-25.3 9.6-28.9 10.4-54.6 4.5-76.2-16.9-20.5-20.3-25.6-50.8-14-78.2 2.1-5.1 4.2-10.3 6.8-15.1 7.8-14.3 3.9-26.6-7.3-36.5-25.2-22.2-54.6-35.6-88.1-38.9-15.6-1.5-27.4 4-32.7 20.2-2.5 7.6-5.7 15.1-9.4 22.2-13.5 26-35.1 40-64.4 39.5-29.2-.4-50.5-14.9-63-41.5-4.3-9.1-7.9-18.5-11.1-28-4.9-14.4-15-21.5-29.7-20.4-36.7 2.8-69.3 16-96.4 41.2-10.5 9.8-13.8 21.6-7 35.5 4 8.1 7 16.7 10 25.2 9.4 26.5 5.1 50.9-13.6 71.6-19.2 21.3-43.7 27.6-71.4 20.1-8.7-2.3-17.3-5.6-25.3-9.7-15.7-8-28.4-3.6-38.9 8.8C23.8 439 10.4 468 6.8 500.8c-2.4 21.9 2.8 29.3 23.4 37.9 6 2.5 12.1 4.9 17.8 8.1 25.4 14.3 38.8 36.2 38 65.4-.8 29.8-15.5 51.3-42.5 64.2-6.3 3-12.9 5.6-19.6 7.8C8.7 689.3 2.6 700 3.5 715.6c2.4 30.1 12.2 57.8 29 82.8 15.5 23 24.7 25.6 50.4 15.1 26.9-11 53-11.1 77.6 5.8 31.9 21.8 41.2 58.5 24.3 99.1-6.1 14.8-6.6 27.6 5.5 38.4 26.3 23.2 56.8 37.7 92.1 40.4 15.7 1.2 27.3-4.5 32.2-20.9 2.3-7.7 5.7-15 9-22.3 12.2-26.7 39-43.7 67.2-42.8 28.1.8 53.9 19.6 64.5 46.9 2.4 6.1 4.5 12.3 7 18.3 8.2 20 17 25.8 38.2 22.8 29.8-4.3 57.3-15.2 80.9-34.3 17.5-14.1 19.6-23.8 11.4-44.7-2.4-6.1-5.1-12-7.3-18.2-10.2-28.8-5.1-55 16.5-76.4 21.6-21.5 47.8-26.4 76.5-15.6 11.8 4.4 23.4 9.1 34.8 14.4 11.5 5.3 22.3 4.2 30.7-4.4 28.1-28.7 44.3-63 44.4-103.7.1-12.5-6.8-20.2-18.6-24.5zm-376.6 99.9c-98.8-.4-178.7-81.4-177.9-180.5.8-98.2 81.3-177 180.2-176.4 98.5.5 177.4 80.7 176.8 179.5-.5 98.5-80.5 177.7-179.1 177.4zm1.8-265c-47.1-1.1-86.9 37.1-88.2 84.8-1.3 47.1 36.9 86.9 84.7 88.1 47.3 1.2 87.3-37.1 88.2-84.6.8-47.3-37.5-87.2-84.7-88.3zm-.8 126.9c-22.8.5-41.3-17.7-41.3-40.5.1-22.2 18-40.1 40.1-40.2 22.1-.1 40.3 17.7 40.6 39.7.3 22.2-17.4 40.6-39.4 41zm437.7-263.2c-.7-4-.9-8.2-1-12.3-.6-15 7.8-29 21-35.1 13.1-6.1 29.3-3.4 40.4 6.6l7.4 6.8c8.4 7.3 13.8 7.9 22.8 1.6 12.7-8.9 22.8-20.2 29.2-34.4 4.8-10.5 3.5-15.4-5.1-23.1-2.5-2.2-5.1-4.4-7.5-6.7-11.3-10.9-15-24-10.1-38.8 5-14.8 15.9-23.1 31.5-24.8 6.4-.7 12.8-1.2 19.3-1.4 6.5-.2 11.2-3.2 13.1-9.1 6.3-19.6 5.8-39.1-3.5-57.8-2.9-5.7-7.8-7.7-14.2-6.9-7.2.9-14.4 1.6-21.6 1.7-15 .2-26.6-6.3-33.5-19.6-6.9-13.2-5.7-26.5 3.1-38.7 3-4.2 6.4-8.1 10.1-11.7 5.9-5.8 6.5-12.3 2.5-19-9.2-15.1-21.9-26.6-38.4-33.5-7.4-3.1-14-2-19.3 4.9-2.8 3.7-6.2 6.9-9.4 10.2-10.9 11.4-24 14.6-38.9 9.8-14.1-4.6-23.4-17.4-24.4-32.7-.2-2.8-.4-5.7-.4-8.5.3-8.4-4.3-13.1-11.8-15.1C776.5-1.6 760-1 743.8 5.2c-7.5 2.9-11.7 8.2-10.4 16.8.6 4.1.8 8.2.8 12.3-.2 15-6.9 26.4-20.4 33-13.5 6.5-26.6 4.8-38.5-4.5-4-3.2-7.9-6.7-11.5-10.3-5.6-5.5-11.8-6.4-18.3-2.5-16.2 9.7-28.1 23.3-34.7 41.1-2.6 6.9-1.4 13.1 5 17.9 3.7 2.8 7 6.1 10.4 9.3 10.4 10 14.1 22.2 10.3 36-3.9 14.2-13.7 22.7-28.1 25.7-4.5.9-9.2 1.4-13.8 1.4-9 0-13.9 4.9-15.8 13-4 16.4-3.4 32.8 2.5 48.7 3.9 10.6 8 12.8 19.5 12 3.3-.2 6.7-.5 10-.4 15 .7 26.2 7.7 32.5 21.3 6.5 13.9 4.7 27.1-4.7 39.2-2.2 2.8-4.6 5.5-7.2 8.1-5.8 5.8-6.1 12.2-2.1 19.1 8 13.3 18.9 23.7 32.4 31.3 12.4 7 17.2 6.1 26.6-4.7 9.8-11.2 21.8-17.3 36.9-15.2 19.7 2.7 32.4 17.3 34 39.9.6 8.2 3.3 14.2 11.4 16.3 17.4 4.6 34.7 4.2 51.6-2.7 7.2-3 11.2-8.3 9.7-16.9zM702.1 245.7c-22.2-45.2-3.5-99.9 42-122.5 45.3-22.4 100-3.9 122.5 41.6 22.5 45.3 4 100.1-41.3 122.7-45.5 22.6-100.8 3.8-123.2-41.8zm62.9-80.2c-21.9 10.4-31.3 37.1-20.9 59.2 10.2 21.9 37 31.4 59.2 20.9 22-10.4 31.5-37.1 21-59.1-10.6-21.9-37.4-31.4-59.3-21zm28.9 58.4c-10.4 5.5-23 1.4-28.3-9.1-5.1-10.2-1-22.5 9.1-27.7 10.1-5.1 22.6-1.2 27.8 8.9 5.3 10.2 1.4 22.7-8.6 27.9zm198.5 241.8c-2.9-.8-5.9-1.6-8.7-2.6-5.9-2.2-9.4-6.5-10.1-12.7-.7-6.2 1.8-11.2 7.1-14.6 1.8-1.2 3.7-2.2 5.7-3 3.2-1.4 4.4-3.8 3.9-7-1.3-7.3-4.5-13.7-9.8-18.9-2.4-2.3-5.2-2.9-8.2-1.1-1.7 1-3.5 1.7-5.2 2.6-6 2.8-11.6 2-16.6-2.1-4.8-3.9-6.5-10.3-4.5-16.5.4-1.1.7-2.3 1.2-3.4 1.4-3.2.3-5.8-2.3-7.7-5.8-4.2-12.4-6.5-19.6-6.6-3.4 0-5.8 1.4-6.6 5-.4 1.7-.9 3.3-1.6 4.9-2.4 5.8-6.7 9.2-13 9.7s-11.1-2.2-14.3-7.6c-1.1-1.9-2-3.8-2.9-5.8-1.3-3-3.6-4.3-6.8-3.8-7.8 1.3-14.5 4.8-19.8 10.7-2.1 2.3-2.5 4.9-.8 7.7 1 1.7 1.8 3.4 2.6 5.2 2.5 5.5 2.1 10.8-1.5 15.6-3.7 4.9-8.8 6.8-14.9 5.7-1.9-.3-3.8-.9-5.6-1.6-3.5-1.4-6.1-.2-8.1 2.6-4.1 5.8-6.3 12.3-6.5 19.3-.1 4.7 1.2 6.2 5.8 7.6 1.3.4 2.7.8 4 1.4 5.7 2.6 9 7 9.4 13.2.4 6.4-2.3 11.3-7.8 14.6-1.3.8-2.7 1.5-4 2.1-3.1 1.4-4.2 3.8-3.7 7.1 1.1 6.4 3.7 12.1 7.8 17.1 3.8 4.6 5.8 5 11.1 2.2 5.5-2.9 11.1-3.4 16.7-.3 7.2 4 10 11.7 7.2 20.7-1 3.3-.9 6 1.9 8.1 6.1 4.4 12.9 6.9 20.5 6.8 3.4 0 5.8-1.5 6.5-5.1.3-1.7.9-3.3 1.5-5 2.1-5.9 7.5-10.1 13.5-10.5 6-.4 11.9 3.1 14.7 8.7.6 1.3 1.2 2.5 1.9 3.8 2.2 4.1 4.1 5.2 8.6 4.1 6.3-1.5 11.9-4.4 16.6-8.9 3.5-3.4 3.7-5.5 1.5-9.8-.6-1.3-1.3-2.5-1.9-3.7-2.8-6-2.2-11.6 2-16.7 4.2-5 9.7-6.6 16-4.8 2.6.7 5.2 1.5 7.7 2.4 2.6.9 4.8.5 6.5-1.5 5.4-6.7 8.2-14.3 7.4-23.1-.3-2.3-1.9-3.8-4.5-4.5zm-78.6 28.8c-21.1 1.9-39.8-13.9-41.6-35.1-1.8-21 13.9-39.4 35-41.3 21.1-1.8 39.5 13.7 41.4 34.9 1.9 21.1-13.7 39.6-34.8 41.5zm-4.8-56.7c-10.1.7-17.8 9.7-17.2 19.9.6 10.1 9.6 17.9 19.8 17.2 10.1-.7 17.9-9.7 17.2-19.8-.7-10.2-9.7-18-19.8-17.3zm2.3 27.2c-4.9.6-9.2-3-9.6-7.8-.4-4.7 3-8.9 7.8-9.4 4.7-.5 9 3 9.5 7.7s-3 8.9-7.7 9.5z"/>
</svg>
