<svg xmlns="http://www.w3.org/2000/svg" data-name="Layer 2" viewBox="0 0 360 200"><g data-name="Layer 1"><path d="M93 58a4 4 0 0 0 2.4-.9 4 4 0 0 0 .7-5.6 26.9 26.9 0 0 1-5.5-19.4 26.8 26.8 0 0 1 29.8-24c6.1.7 11.7 3.4 16 7.7a4 4 0 0 0 5.7 0 4 4 0 0 0 0-5.7 35.1 35.1 0 0 0-20.8-10 34.8 34.8 0 0 0-38.6 31c-1 9.1 1.5 18.1 7 25.3A4 4 0 0 0 93 58Zm94-25.6a4 4 0 0 0-4-4c-3.7 0-7.4.3-11 .8a4 4 0 0 0-3.5 4.4 4 4 0 0 0 4 3.5h.6c3.2-.5 6.6-.7 9.9-.7a4 4 0 0 0 4-4Zm-29.4 0a80.9 80.9 0 0 0-55.6 77 4 4 0 1 0 8 0 72.9 72.9 0 0 1 50.1-69.3 4 4 0 0 0 2.6-5 4 4 0 0 0-5-2.6Z"/><path d="M332 84.7a18.5 18.5 0 0 0-34.4-8.3c-7.4-1.3-15-2.5-22.2-3.4a5 5 0 0 0-5.6 4.3A5 5 0 0 0 274 83c7.7 1 14.6 2 20.9 3.2a18.5 18.5 0 0 0 34.8 8.5C345.5 100 350 105 350 107.4c0 3.6-9.9 12.4-47.3 19.9-10 2-21.2 3.7-33.1 5.2a93.2 93.2 0 0 0 3.4-25.1 93 93 0 1 0-182.6 25c-12-1.4-23-3.1-33.2-5.2C20 119.8 10 111 10 107.4c0-4 13.4-16.3 74.7-24.3a5 5 0 0 0 4.3-5.6 5 5 0 0 0-5.6-4.3c-38 5-83.4 15-83.4 34.2 0 12.5 18 22.2 55.3 29.6a460 460 0 0 0 38.7 6c14 33.7 47.2 57 86 57s72-23.7 86-57.5c14-1.5 27-3.5 38.7-5.8C342 129.2 360 119.5 360 107c0-9.7-11.6-17.1-28-22.7ZM97 107.4a83 83 0 1 1 161.7 26.3c-24 2.4-50.9 3.7-78.7 3.7s-54.6-1.3-78.7-3.8a82.7 82.7 0 0 1-4.3-26.2Zm83 83a83 83 0 0 1-74.4-46.3c23 2.2 48.3 3.3 74.4 3.3s51.4-1.1 74.4-3.3a83 83 0 0 1-74.4 46.3Z"/></g></svg>