<svg xmlns="http://www.w3.org/2000/svg" xmlns:xlink="http://www.w3.org/1999/xlink" viewBox="-1300 1041 200.3 62.1" width="200.3" height="62.1">
  <path d="M-1266.7 1071.6c0-1.4-.6-2.9-2.2-2.9s-2.2 1.4-2.2 2.9.6 2.9 2.2 2.9 2.2-1.5 2.2-2.9m9.7-1.8c0-.7-.6-1-1.3-1h-2v2.2h2.1c.8 0 1.2-.4 1.2-1.2m1 2.1c1 .3 1.3 1.4 1.4 2.3 0 .4.1 1.8.4 2.2h-2.5c-.2-.3-.3-1.3-.3-1.5-.1-1-.2-2-1.4-2h-1.9v3.5h-2.5v-9.7h4.9c1.7 0 3.4.8 3.4 2.7 0 1.1-.5 2.1-1.5 2.5m-8.1-.3c0 2.8-1.7 5-4.8 5-3 0-4.8-2.2-4.8-5s1.7-5 4.8-5c3 0 4.8 2.2 4.8 5m-2.4-5.6h-2v-1.7h2zm-2.8 0h-2v-1.7h2zm-8.8 4.6l4 5.9h-3.1l-2.6-4.1-1 1.1v3h-2.5v-9.7h2.5v3.7l3.2-3.7h3.1zm19.5-8.9c-11.4-46.5-20.7 0-20.7 0-46.6 11.4 0 20.8 0 20.8 11.2 46.4 20.7 0 20.7 0 46.7-11.3 0-20.8 0-20.8" fill="#e0001b"/>
  <path d="M-1252.6 1086.1l.2-.4h-1.5l-1.9 2.8v-2.8h-1.2v7.2h1.2v-2.6l.5-.6 1.6 3v.2h1.5l-2.4-4.2zm4 4.8c0 .9-.2 1.2-1 1.2-.4 0-.8-.2-.8-1.3v-5.1h-1.4v5c0 1.6.7 2.4 2.2 2.4 1.4 0 2.2-.8 2.2-2.3v-5.1h-1.2zm6-.6l-1.7-4.4v-.2h-1.5v7.3h1.2v-4.7l1.8 4.5v.2h1.5v-7.3h-1.2zm5.2-1.7c-.7-.2-1.3-.4-1.3-1 0-.7.3-1 .9-1 .6 0 .8.3.8 1v.2h1.3v-.3c0-1.5-.6-2.1-2-2.1-1.6 0-2.2 1.1-2.2 2.1 0 1.4 1 2 1.9 2.1.9.3 1.3.5 1.3 1.3 0 .5-.3 1-1 1-1 0-1-.6-1-1.5v-.2h-1.2v.2c0 1.4.3 2.6 2.2 2.6.5 0 2.2-.2 2.2-2.2 0-1.6-1-1.9-2-2.2zm2.5-1.8h1.7v6h1.2v-6h1.7v-1.1h-4.6zm8.7-1.1h1.3v7.3h-1.3zm5.7 4.7l-1.2-4.6v-.1h-1.7v.4h.1v6.9h1.2v-4.4l1.1 4.2v.2h1.2l1-4.4v4.4h1.3v-7.3h-1.8zm9.7-5c-2.4 0-2.4 2.8-2.4 3.8s0 3.8 2.4 3.8 2.4-2.8 2.4-3.8 0-3.7-2.4-3.7zm1 3.8c0 2.4-.5 2.7-1 2.7-.8 0-1.1-.7-1.1-2.7 0-2.3.6-2.6 1-2.6.6 0 1.2.3 1.2 2.6zm-.8-5.1h1.2v1.4h-1.2zm-1.5 0h1.2v1.4h-1.2zm5 8.8h1.2v-3.3h2.4v-1h-2.4v-1.8h2.6v-1.1h-3.8zm5 0h1.1v-3.3h2.5v-1h-2.5v-1.8h2.7v-1.1h-3.9zm6.1-3.3h2.5v-1h-2.5v-1.8h2.7v-1.1h-3.9v7h4v-1h-2.8zm7.2.7l-1.8-4.4v-.2h-1.5v7.3h1.2v-4.7l1.8 4.5v.2h1.5v-7.3h-1.2zm2.3-3.5h1.7v6h1.2v-6h1.7v-1.1h-4.6zm6.8-1.1h-1.2l-.1 7v.2h4v-1.1h-2.7zm3.7 0h1.2v7.3h-1.2zm5.8 4.7c.1 1-.2 1.6-.9 1.6-.5 0-1-.3-1-2.7 0-1.7.1-2.6 1-2.6.8 0 1 .8 1 1.2v.2h1.2v-.2c0-1.5-.7-2.3-2.2-2.3-2.4 0-2.4 2.7-2.4 3.7s0 3.8 2.4 3.8c1.4 0 2.2-1 2.3-2.8v-.2h-1.4zm5.7-2h-1.9v-2.8h-1.2v7.3h1.2v-3.4h2v3.4h1.1v-7.3h-1.2zm3.8 1.2h2.5v-1h-2.5v-1.8h2.7v-1.1h-3.9v7h4v-1h-2.8zm7.3.7l-1.8-4.4v-.2h-1.5v7.3h1.2v-4.7l1.8 4.5v.2h1.5v-7.3h-1.2zm14.1-4.6h-1.4l-2 7-.2-.1c-.3-.2-.5-.3-.5-1v-1.2c-.2-.5-.3-.9-.7-1 .5-.5.7-1 .7-1.8 0-1.3-.6-2-2-2h-2.2v7.3h1.4v-3h.9c.4 0 .7 0 .8.7v1.2l.3 1v.2h2.7l.5-1.8h1.8l.5 1.7v.2h1.4zm-.2 4.2h-1.2l.6-2.2zm-7-3.2h.9c.7 0 1 .3 1 1 0 1-.7 1-1.2 1h-.6zm12.8 4.2c.1.9-.2 1.2-.9 1.2-.5 0-.9-.2-.9-1.3v-5.1h-1.3v5c0 1.6.7 2.4 2.2 2.4 1.4 0 2.2-.8 2.2-2.3v-5.1h-1.3zm5.8-.5l-1.2-4.6v-.1h-1.7v.4h.1v6.9h1.2v-4.4l1.1 4.2v.2h1.2l1.1-4.4v4.4h1.2v-7.3h-1.8zm13.6-4.7h-1.2l-.8 4.4-.8-4.3v-.1h-1.4l-.8 4.4-.8-4.3v-.1h-1.3l1.4 7.3h1.4l.8-4.5.7 4.5h1.4l1.4-7.1zm1 0h1.2v7.3h-1.1zm4 4h2.4v-1.2h-2.5v-1.7h2.7v-1.1h-3.9v7h4v-1h-2.8zm7.1-4v4.6l-1.8-4.4v-.2h-1.5v7.3h1.2v-4.7l1.8 4.5v.2h1.5v-7.3z" fill="#e0001b"/>
</svg>
