<svg xmlns="http://www.w3.org/2000/svg" xmlns:xlink="http://www.w3.org/1999/xlink" viewBox="-1300 1041 200 62" width="200" height="62">
  <defs>
    <path id="a" d="M-1300 1041h230v62h-230z"/>
  </defs>
  <clipPath id="b">
    <use xlink:href="#a" overflow="visible" width="100%" height="100%"/>
  </clipPath>
  <path d="M-1267 1072c0-2 0-3-2-3s-2 1-2 3c0 1 0 2 2 2 2 1 2-1 2-2m10-2l-1-1h-2v2h2l1-1m1 2l1 2 1 2h-3v-1l-1-2h-2v3h-3v-9h5c2 0 4 0 4 2l-2 3m-8 0c0 2-2 5-5 5s-5-3-5-5c0-3 2-5 5-5s5 2 5 5m-2-6h-2v-2h2zm-3 0h-2v-2h2zm-9 5l4 5h-3l-3-4-1 2v3h-2v-10h2v3l3-3h4zm19-9c-11-47-20 0-20 0-47 11 0 20 0 20 11 47 20 0 20 0 47-11 0-20 0-20" clip-path="url(#b)" fill="#e0001b"/>
  <path d="M-1252 1086h-1l-2 2v-2h-1v7h1v-3h1l1 3h2l-3-4zm4 5l-1 1-1-1v-5h-1v5l2 2c2 0 2-1 2-2v-5h-1zm6-1l-2-4h-1v7h1v-5l2 5h2v-7h-2zm5-2l-1-1 1-1 1 1v1h1v-1c0-1 0-2-2-2l-2 2c0 2 1 2 2 2l1 2-1 1-1-2h-1c0 2 0 3 2 3 1 0 2 0 2-2s-1-2-2-3zm3-1h2v6h1v-6h2v-1h-5zm9-1h1v7h-1zm5 4l-1-4h-2 1v7h1v-5l1 5h1l1-5v5h1v-7h-1zm10-5c-2 0-2 3-2 4s0 4 2 4 2-3 2-4c1-1 1-4-2-4zm1 4l-1 3-1-3 1-3 1 3zm-1-5h1v1h-1zm-1 0h1v1h-1zm5 9h1v-4h2v-1h-2v-1h3v-1h-4zm5 0h1v-4h2v-1h-2v-1h3v-1h-4zm6-4h2v-1h-2v-1h3v-1h-4v7h4v-2h-3zm7 1l-2-4h-1v7h1v-5l2 5h1v-7h-1zm2-3h2v6h1v-6h2v-1h-5zm7-1h-1v7h4v-1h-3zm4 0h1v7h-1zm6 4l-1 2-1-3 1-2 1 1h1c0-2-1-3-2-3-2 0-2 3-2 4s0 4 2 4c1 0 2-1 2-3h-1zm6-2h-2v-3h-2v8h2v-4h2v4h1v-8h-1zm3 1h3v-1h-3v-1h3v-1h-4v7h4v-2h-3zm8 1l-2-4h-2v7h2v-5l1 5h2v-7h-1zm14-4h-2l-2 6v-2l-1-1 1-2-2-1h-3 1v7h1v-3h2v3h3v-2h2l1 2h1zm0 4h-2l1-2zm-7-3h1l-1 2zm12 4v1l-1-1v-5h-2v5c0 1 1 2 3 2l2-2v-5h-2zm6-1l-1-4h-2v7h2v-5l1 5h1l1-5v5h1v-7h-2zm14-4h-1l-1 4-1-4h-1l-1 4-1-4h-1l1 7h2v-5l1 5h1l2-7zm1 0h1v7h-1zm4 3h2v-1h-2v-1h3v-1h-4v7h4v-2h-3zm7-3v4l-2-4h-1v7h1v-5l2 5h1v-7z"/>
</svg>
