<svg xmlns="http://www.w3.org/2000/svg" viewBox="0 0 58 58">
  <path d="M29 58c16 0 29-13 29-29S45 0 29 0 0 13 0 29s13 29 29 29z"/>
  <path fill="#fff" d="M39.4 16.5v4h3.3v17.1h-3.3v4h7.1v-25h-7.1zM11.5 16.5v25h7.1v-4h-3.3v-17h3.3v-4h-7.1zM24.3 30c0-.7.1-1.5.2-2.2.1-.7.3-1.4.6-2.1.3-.6.7-1.2 1.2-1.7s1.1-.9 1.9-1.2c.8-.3 1.7-.4 2.9-.4h.9c.4 0 .7.1.9.1v2.7c-.2 0-.5-.1-.8-.1H31c-.9 0-1.5.1-2.1.4s-.9.6-1.1 1.1-.4 1.1-.4 1.8h.1c.2-.4.5-.8.9-1.1s.9-.4 1.6-.4c1.1 0 2 .4 2.6 1.1.6.7 1 1.8 1 3.1 0 1.4-.4 2.6-1.2 3.4-.8.8-1.9 1.2-3.3 1.2-.9 0-1.7-.2-2.5-.6s-1.3-1-1.7-1.8c-.4-1-.6-2-.6-3.3zm4.8 2.9c.4 0 .7-.1.9-.4.2-.3.3-.7.3-1.3 0-.5-.1-.9-.3-1.1-.2-.3-.5-.4-.9-.4s-.8.1-1 .4c-.2.3-.4.6-.4.9 0 .3 0 .6.1.9.1.3.2.5.4.7.3.2.6.3.9.3z"/>
</svg>
