<svg xmlns="http://www.w3.org/2000/svg" width="30" height="30"><path fill="none" d="M30 0v30H0V0h30Z"/><path fill="#0C0C0C" fill-rule="evenodd" d="M0 15C0 6.716 6.716 0 15 0c8.284 0 15 6.716 15 15 0 8.284-6.716 15-15 15-8.284 0-15-6.716-15-15Z"/><path fill="#FFF" d="M23.959 8.975a11.016 11.016 0 0 0-2.701-2.709l-4.32 4.32V4.47A10.956 10.956 0 0 0 15 4.297c-.663 0-1.278.06-1.893.168v6.126L8.766 6.254a11.016 11.016 0 0 0-2.71 2.7l4.342 4.342H4.256a11.15 11.15 0 0 0-.173 1.917c0 .655.06 1.294.173 1.917h6.142l-4.341 4.341a10.95 10.95 0 0 0 2.709 2.701l4.34-4.337v6.125a10.864 10.864 0 0 0 3.831-.004V19.84l4.32 4.32a10.946 10.946 0 0 0 2.702-2.708l-4.317-4.317h6.101c.109-.623.173-1.262.173-1.917s-.06-1.294-.173-1.917h-6.1l4.316-4.313v-.012Z"/></svg>