<svg xmlns="http://www.w3.org/2000/svg" xmlns:xlink="http://www.w3.org/1999/xlink" width="58" height="58"><defs><clipPath id="b"><use xlink:href="#a"/></clipPath><path id="a" d="M0 0h27v23H0V0Z"/></defs><path fill="none" d="M58 0v58H0V0h58Z"/><path fill-rule="evenodd" d="M29 58c16.016 0 29-12.984 29-29S45.016 0 29 0 0 12.984 0 29s12.984 29 29 29Z"/><path fill="#FFF" fill-rule="evenodd" d="M39.857 16v3.971h3.336V37.03h-3.336V41H47V16h-7.143ZM12 16v25h7.143v-3.971h-3.336V19.97h3.336V16H12Z"/><g clip-path="url(#b)" transform="translate(16 15)"><path fill="#FFF" d="M17.55 9.27q0 1.332-.801 2.124t-1.971 1.08v.054q1.548.18 2.349.936.801.756.801 2.034 0 1.116-.549 2.007t-1.692 1.404q-1.143.513-2.943.513-2.088 0-3.708-.702v-2.304q.828.414 1.737.63.909.216 1.683.216 1.458 0 2.043-.504.585-.504.585-1.422 0-.54-.27-.909t-.945-.558q-.675-.189-1.881-.189h-.972v-2.088h.99q1.188 0 1.809-.225t.846-.612q.225-.387.225-.891 0-.684-.423-1.071-.423-.387-1.413-.387-.918 0-1.593.315-.675.315-1.143.621L9.054 7.47q.756-.54 1.773-.9t2.421-.36q1.98 0 3.141.801T17.55 9.27Z"/></g></svg>