<svg xmlns="http://www.w3.org/2000/svg" viewBox="0 0 58 58">
  <path d="M29 58c16 0 29-13 29-29S45 0 29 0 0 13 0 29s13 29 29 29z"/>
  <path fill="#fff" d="M39.4 16.5v4h3.3v17.1h-3.3v4h7.1v-25h-7.1z"/>
  <path fill="#fff" d="M11.5 16.5v25h7.1v-4h-3.3v-17h3.3v-4h-7.1z"/>
  <path fill="#fff" d="M33.2 25.4c0 .6-.1 1.1-.4 1.6a3.57 3.57 0 01-2.4 1.7v.1c1 .1 1.8.4 2.4.9.6.5.8 1.2.8 2.1 0 .7-.2 1.3-.6 1.9-.4.6-1 1.1-1.8 1.4s-1.8.5-3 .5c-.8 0-1.5-.1-2.1-.2-.6-.1-1.2-.3-1.7-.5V32c.6.3 1.1.5 1.7.6.6.1 1.1.2 1.6.2.9 0 1.4-.1 1.7-.4.3-.2.5-.6.5-1 0-.3-.1-.5-.2-.7-.1-.2-.4-.4-.8-.5s-1-.2-1.7-.2h-.8v-2.6h.8c1 0 1.7-.1 2.1-.4s.6-.6.6-1c0-.3-.1-.6-.4-.8-.3-.2-.6-.2-1-.2s-.8.1-1.1.2-.6.2-.9.4c-.3.1-.4.2-.6.3l-1.4-2.3c.5-.4 1.1-.7 1.8-.9.7-.3 1.6-.4 2.7-.4 1.3 0 2.4.3 3.1.8.7.6 1.1 1.3 1.1 2.3z" />
</svg>
