<svg xmlns="http://www.w3.org/2000/svg" xmlns:xlink="http://www.w3.org/1999/xlink" width="58" height="58"><defs><clipPath id="b"><use xlink:href="#a"/></clipPath><path id="a" d="M0 0h27v23H0V0Z"/></defs><path fill="none" d="M58 0v58H0V0h58Z"/><path fill-rule="evenodd" d="M29 58c16.016 0 29-12.984 29-29S45.016 0 29 0 0 12.984 0 29s12.984 29 29 29Z"/><g fill="#FFF" fill-rule="evenodd"><path d="M39.857 16v3.971h3.336V37.03h-3.336V41H47V16h-7.143ZM12 16v25h7.143v-3.971h-3.336V19.97h3.336V16H12Z"/></g><g clip-path="url(#b)" transform="translate(16 15)"><path fill="#FFF" d="M18 11.88q0 1.098-.162 2.187-.162 1.089-.567 2.052-.405.963-1.134 1.71-.729.747-1.854 1.17-1.125.423-2.727.423-.378 0-.882-.027t-.846-.099v-2.178q.36.072.756.126.396.054.792.054 1.602 0 2.475-.513t1.233-1.413q.36-.9.414-2.088h-.108q-.378.63-.999 1.062-.621.432-1.845.432-1.638 0-2.628-1.062-.99-1.062-.99-3.006 0-2.088 1.179-3.276 1.179-1.188 3.195-1.188 1.314 0 2.376.603 1.062.603 1.692 1.854.63 1.251.63 3.177Zm-4.644-3.456q-.792 0-1.296.54t-.504 1.71q0 .936.432 1.476.432.54 1.314.54.612 0 1.053-.27.441-.27.693-.675.252-.405.252-.837 0-.594-.216-1.17t-.648-.945q-.432-.369-1.08-.369Z"/></g></svg>