<svg viewBox="0 0 58 58">
  <path d="M29 58c16 0 29-13 29-29S45 0 29 0 0 13 0 29s13 29 29 29z"/>
  <path fill="#fff" d="M39.4 16.5v4h3.3v17.1h-3.3v4h7.1v-25h-7.1z"/>
  <path fill="#fff" d="M11.5 16.5v25h7.1v-4h-3.3v-17h3.3v-4h-7.1z"/>
  <path fill="#fff" transform="translate(16 16)" d="M13 6.4c1.3 0 2.3.3 3.1.8.8.5 1.2 1.3 1.2 2.4 0 .8-.2 1.4-.6 1.9s-.9.9-1.6 1.2c.4.2.8.5 1.2.8.4.3.7.7 1 1.1s.4.9.4 1.5c0 .7-.2 1.3-.5 1.9-.3.5-.8 1-1.5 1.3-.7.3-1.6.5-2.7.5-1.6 0-2.8-.3-3.6-1A4.1 4.1 0 018.3 16c0-.9.2-1.6.7-2.1.4-.5 1-.9 1.7-1.3-.5-.4-1-.8-1.4-1.3-.4-.5-.6-1.1-.6-1.9 0-.7.2-1.3.6-1.7s.9-.8 1.5-1c.6-.2 1.4-.3 2.2-.3zm0 2.5c-.3 0-.5.1-.7.3s-.3.4-.3.7c0 .3.1.5.3.8.2.2.4.4.7.6.3-.1.5-.3.7-.5.2-.2.4-.5.4-.8 0-.3-.1-.5-.3-.7-.3-.3-.5-.4-.8-.4zm-1.5 7c0 .4.1.7.4.9s.6.3 1.1.3c.5 0 .9-.1 1.2-.3.3-.2.4-.5.4-.8 0-.3-.1-.5-.2-.7-.2-.2-.3-.4-.5-.6s-.4-.3-.5-.4l-.4-.1c-.4.2-.7.4-1 .7s-.5.6-.5 1z"/>
</svg>
