<svg xmlns="http://www.w3.org/2000/svg" xmlns:xlink="http://www.w3.org/1999/xlink" width="58" height="58"><defs><clipPath id="b"><use xlink:href="#a"/></clipPath><path id="a" d="M0 0h27v23H0V0Z"/></defs><path fill="none" d="M58 0v58H0V0h58Z"/><path fill-rule="evenodd" d="M29 58c16.016 0 29-12.984 29-29S45.016 0 29 0 0 12.984 0 29s12.984 29 29 29Z"/><path fill="#FFF" fill-rule="evenodd" d="M38.857 16v3.971h3.336V37.03h-3.336V41H46V16h-7.143ZM11 16v25h7.143v-3.971h-3.336V19.97h3.336V16H11Z"/><g clip-path="url(#b)" transform="translate(15 15)"><path fill="#FFF" d="M18.054 19.242H9.072v-1.89l3.222-3.258q.972-1.008 1.566-1.683.594-.675.864-1.224.27-.549.27-1.179 0-.774-.423-1.152-.423-.378-1.143-.378-.738 0-1.44.342t-1.476.972L9.036 8.046q.558-.486 1.179-.9.621-.414 1.44-.675.819-.261 1.971-.261 1.26 0 2.169.459t1.404 1.242q.495.783.495 1.773 0 1.062-.423 1.944-.423.882-1.224 1.746-.801.864-1.935 1.908l-1.656 1.548v.126h5.598v2.286Z"/></g></svg>