<svg xmlns="http://www.w3.org/2000/svg" viewBox="0 0 58 58">
  <style>
    .st2{fill:#fff}
  </style>
  <path d="M29 58c16 0 29-13 29-29S45 0 29 0 0 13 0 29s13 29 29 29z"/>
  <path class="st2" d="M39.4 16.5v4h3.3v17.1h-3.3v4h7.1v-25h-7.1zM11.5 16.5v25h7.1v-4h-3.3v-17h3.3v-4h-7.1zM29.6 26.9c.7 0 1.4.2 2 .5.6.3 1.1.8 1.4 1.4s.5 1.4.5 2.2c0 1.4-.4 2.5-1.3 3.3-.9.8-2.2 1.2-3.9 1.2-1.5 0-2.7-.2-3.7-.7V32c.5.2 1 .4 1.6.6.6.2 1.2.3 1.7.3.6 0 1.1-.1 1.5-.4.3-.3.5-.7.5-1.2s-.2-.9-.5-1.1c-.4-.3-.9-.4-1.6-.4-.3 0-.6 0-1 .1-.3.1-.6.1-.8.2l-1.3-.6.5-6.8h7.3v2.9h-4.4l-.1 1.5c.2 0 .4-.1.6-.1s.5-.1 1-.1z"/>
</svg>
