<svg xmlns="http://www.w3.org/2000/svg" viewBox="0 0 58 58">
  <path d="M29 58c16 0 29-13 29-29S45 0 29 0 0 13 0 29s13 29 29 29z"/>
  <path fill="#fff" d="M39.86 16v3.97h3.33v17.06h-3.33V41H47V16h-7.14zM12 16v25h7.14v-3.97h-3.33V19.97h3.33V16H12z"/>
  <path fill="#fff" d="M34.16 27.7q0 2.3-.68 3.96-.69 1.66-2.16 2.55-1.48.9-3.87.9l-.92-.02q-.52-.02-.88-.07v-2.76q.38.07.75.11.38.04.89.04 1.44 0 2.24-.42.8-.41 1.12-1.15.33-.74.38-1.7h-.1q-.37.66-.93 1.08-.57.42-1.67.42-1.62 0-2.58-1.09-.97-1.09-.97-3.1 0-2.14 1.22-3.35 1.21-1.2 3.34-1.2 1.33 0 2.43.6 1.1.62 1.74 1.9.65 1.27.65 3.3zm-4.73-3.03q-.61 0-.95.41-.33.41-.33 1.33 0 .72.3 1.14.31.43.94.43.58 0 .95-.45t.37-.96q0-.46-.14-.9-.13-.43-.41-.72-.28-.28-.73-.28z"/>
</svg>
