<svg xmlns="http://www.w3.org/2000/svg" xmlns:xlink="http://www.w3.org/1999/xlink" width="58" height="58"><defs><clipPath id="b"><use xlink:href="#a"/></clipPath><path id="a" d="M0 0h27v23H0V0Z"/></defs><path fill="none" d="M58 0v58H0V0h58Z"/><path fill-rule="evenodd" d="M29 58c16.016 0 29-12.984 29-29S45.016 0 29 0 0 12.984 0 29s12.984 29 29 29Z"/><path fill="#FFF" fill-rule="evenodd" d="M38.857 16v3.971h3.336V37.03h-3.336V41H46V16h-7.143ZM11 16v25h7.143v-3.971h-3.336V19.97h3.336V16H11Z"/><g clip-path="url(#b)" transform="translate(15 15)"><path fill="#FFF" d="M15.786 19.242h-2.718v-7.434q0-.468.027-1.224t.045-1.332q-.09.108-.387.387-.297.279-.549.495l-1.476 1.188-1.314-1.638 4.14-3.294h2.232v12.852Z"/></g></svg>