<svg xmlns="http://www.w3.org/2000/svg" xmlns:xlink="http://www.w3.org/1999/xlink" width="58" height="58"><defs><clipPath id="b"><use xlink:href="#a"/></clipPath><path id="a" d="M0 0h27v23H0V0Z"/></defs><path fill="none" d="M58 0v58H0V0h58Z"/><path fill-rule="evenodd" d="M29 58c16.016 0 29-12.984 29-29S45.016 0 29 0 0 12.984 0 29s12.984 29 29 29Z"/><path fill="#FFF" fill-rule="evenodd" d="M39.857 16v3.971h3.336V37.03h-3.336V41H47V16h-7.143ZM12 16v25h7.143v-3.971h-3.336V19.97h3.336V16H12Z"/><g clip-path="url(#b)" transform="translate(16 16)"><path fill="#FFF" d="M8.982 13.788q0-1.116.162-2.196t.567-2.043q.405-.963 1.134-1.71.729-.747 1.854-1.17 1.125-.423 2.727-.423.378 0 .882.027t.846.099V8.55q-.342-.09-.747-.135-.405-.045-.801-.045-1.602 0-2.475.504t-1.233 1.413q-.36.909-.414 2.097h.108q.36-.63 1.035-1.062.675-.432 1.755-.432 1.692 0 2.682 1.062t.99 3.006q0 2.088-1.179 3.276-1.179 1.188-3.195 1.188-1.314 0-2.376-.603-1.062-.603-1.692-1.854-.63-1.251-.63-3.177Zm4.644 3.456q.792 0 1.296-.549t.504-1.701q0-.936-.432-1.476-.432-.54-1.314-.54-.594 0-1.044.261-.45.261-.702.675-.252.414-.252.846 0 .594.216 1.161.216.567.657.945.441.378 1.071.378Z"/></g></svg>