<svg xmlns="http://www.w3.org/2000/svg" xmlns:xlink="http://www.w3.org/1999/xlink" width="58" height="58"><defs><clipPath id="b"><use xlink:href="#a"/></clipPath><path id="a" d="M0 0h27v23H0V0Z"/></defs><path fill="none" d="M58 0v58H0V0h58Z"/><path fill-rule="evenodd" d="M29 58c16.016 0 29-12.984 29-29S45.016 0 29 0 0 12.984 0 29s12.984 29 29 29Z"/><path fill="#FFF" fill-rule="evenodd" d="M39.857 16.75v3.971h3.336V37.78h-3.336v3.971H47v-25h-7.143ZM12 16.75v25h7.143v-3.971h-3.336V20.72h3.336V16.75H12Z"/><g clip-path="url(#b)" transform="translate(16 16.75)"><path fill="#FFF" d="M13.5 6.228q1.116 0 2.043.342t1.494 1.026q.567.684.567 1.728 0 1.152-.657 1.899-.657.747-1.647 1.233.684.36 1.305.837.621.477 1.008 1.116.387.639.387 1.503 0 1.062-.567 1.854t-1.584 1.224q-1.017.432-2.349.432-2.16 0-3.339-.918-1.179-.918-1.179-2.52 0-1.332.72-2.142.72-.81 1.746-1.314-.864-.54-1.467-1.305-.603-.765-.603-1.917 0-1.026.576-1.71.576-.684 1.521-1.026.945-.342 2.025-.342Zm-.018 1.98q-.666 0-1.107.342-.441.342-.441.972 0 .666.468 1.08.468.414 1.098.72.612-.288 1.08-.693.468-.405.468-1.107 0-.63-.441-.972-.441-.342-1.125-.342Zm-1.98 7.614q0 .702.495 1.152.495.45 1.467.45 1.008 0 1.512-.432t.504-1.152q0-.486-.288-.855t-.711-.666q-.423-.297-.873-.549l-.234-.126q-.828.396-1.35.918-.522.522-.522 1.26Z"/></g></svg>