<svg xmlns="http://www.w3.org/2000/svg" xmlns:xlink="http://www.w3.org/1999/xlink" width="58" height="58"><defs><clipPath id="b"><use xlink:href="#a"/></clipPath><path id="a" d="M0 0h27v23H0V0Z"/></defs><path fill="none" d="M58 0v58H0V0h58Z"/><path fill-rule="evenodd" d="M29 58c16.016 0 29-12.984 29-29S45.016 0 29 0 0 12.984 0 29s12.984 29 29 29Z"/><path fill="#FFF" fill-rule="evenodd" d="M39.857 16v3.971h3.336V37.03h-3.336V41H47V16h-7.143ZM12 16v25h7.143v-3.971h-3.336V19.97h3.336V16H12Z"/><g clip-path="url(#b)" transform="translate(16 16)"><path fill="#FFF" d="M18.342 16.578h-1.548v2.664h-2.646v-2.664h-5.49v-1.89l5.634-8.298h2.502v8.082h1.548v2.106Zm-4.194-4.284q0-.414.018-1.008.018-.594.045-1.107t.045-.675h-.072q-.162.36-.342.702-.18.342-.432.702l-2.358 3.564h3.096v-2.178Z"/></g></svg>