<svg viewBox="0 0 58 58">
  <path d="M29 58c16 0 29-13 29-29S45 0 29 0 0 13 0 29s13 29 29 29z"/>
  <path fill="#fff" d="M39.4 16.5v4h3.3v17.1h-3.3v4h7.1v-25h-7.1zM11.5 16.5v25h7.1v-4h-3.3v-17h3.3v-4h-7.1zM33.7 35.5h-9.3v-2.3l3.1-3.2c.6-.7 1.2-1.2 1.5-1.6.4-.4.6-.8.8-1s.2-.6.2-.9c0-.4-.1-.7-.4-.8-.2-.2-.5-.3-.9-.3s-.8.1-1.2.3c-.4.2-.9.6-1.4 1l-1.8-2.2c.4-.3.8-.7 1.2-1 .4-.3.9-.5 1.5-.7s1.3-.3 2.2-.3c.9 0 1.6.2 2.3.5.6.3 1.1.7 1.5 1.3s.5 1.1.5 1.8-.1 1.4-.4 2c-.3.6-.7 1.2-1.2 1.8-.5.6-1.2 1.2-2 2l-.9.8v.1h4.9v2.7z"/>
</svg>
