<svg xmlns="http://www.w3.org/2000/svg" xmlns:xlink="http://www.w3.org/1999/xlink" width="58" height="58"><defs><clipPath id="b"><use xlink:href="#a"/></clipPath><path id="a" d="M0 0h27v23H0V0Z"/></defs><path fill="none" d="M58 0v58H0V0h58Z"/><path fill-rule="evenodd" d="M29 58c16.016 0 29-12.984 29-29S45.016 0 29 0 0 12.984 0 29s12.984 29 29 29Z"/><path fill="#FFF" fill-rule="evenodd" d="M39.857 16v3.971h3.336V37.03h-3.336V41H47V16h-7.143ZM12 16v25h7.143v-3.971h-3.336V19.97h3.336V16H12Z"/><g clip-path="url(#b)" transform="translate(16 16)"><path fill="#FFF" d="M13.752 11.034q1.17 0 2.088.45.918.45 1.449 1.314.531.864.531 2.142 0 2.088-1.296 3.285t-3.834 1.197q-1.008 0-1.899-.18t-1.557-.522v-2.34q.666.342 1.602.585.936.243 1.764.243 1.206 0 1.845-.495t.639-1.539q0-1.944-2.574-1.944-.504 0-1.044.099t-.9.189l-1.08-.576.486-6.552h6.966v2.304h-4.59l-.234 2.52.657-.117q.351-.063.981-.063Z"/></g></svg>