<svg xmlns="http://www.w3.org/2000/svg" viewBox="0 0 58 58">
  <style>.st2{fill:#fff}</style>
  <path d="M29 58c16 0 29-13 29-29S45 0 29 0 0 13 0 29s13 29 29 29z"/>
  <g transform="translate(10 15)">
    <path class="st2" d="M30.9 0v4h3.3v17h-3.3v4H38V0h-7.1z"/>
    <path class="st2" d="M0 0v25h7.1v-4H3.8V4h3.3V0H0z"/>
    <path class="st2" transform="translate(7)" d="M10.4 15.7c.5-1.1.7-2.4.7-4 0-1.4-.2-2.5-.6-3.3-.4-.9-1-1.5-1.7-1.9-.7-.4-1.5-.6-2.4-.6-1.4 0-2.5.4-3.3 1.2-.8.8-1.2 1.9-1.2 3.3 0 1.3.3 2.4 1 3.1.6.7 1.5 1.1 2.6 1.1.7 0 1.3-.1 1.7-.4.4-.3.7-.6.9-1.1h.1c0 .6-.2 1.2-.4 1.7s-.6.9-1.1 1.2c-.5.3-1.3.4-2.2.4h-.9c-.3 0-.5-.1-.8-.1V19c.2 0 .5.1.9.1h.9c1.6 0 2.9-.3 3.9-.9 1-.6 1.4-1.4 1.9-2.5zm11.5-4.3h-3.3V8.2h-2.4v3.2H13v2.4h3.3V17h2.4v-3.2H22v-2.4ZM5.4 9.1c.2-.3.5-.4.9-.4.3 0 .5.1.7.3.2.2.3.4.4.7.1.3.1.6.1.9 0 .3-.1.7-.4 1-.1.2-.4.4-.8.4s-.7-.1-.9-.4c-.2-.3-.4-.7-.4-1.2 0-.6.1-1 .4-1.3Z"/>
  </g>
</svg>
