<svg viewBox="0 0 58 58" height="58" width="58" xmlns="http://www.w3.org/2000/svg">
  <path d="M29 58a29 29 0 1 0 0-58 29 29 0 0 0 0 58z"/>
  <path d="M16.2 20.5c-1.62 0-3.02.35-4.18 1.05a6.74 6.74 0 0 0-2.64 2.92 9.66 9.66 0 0 0-.88 4.22c0 1.63.27 3.06.8 4.3a6.32 6.32 0 0 0 2.5 2.9 7.65 7.65 0 0 0 4.09 1.02c.85 0 1.59-.05 2.21-.15.5-.08 1-.2 1.47-.36l.68-.24V33.5l-.64.19c-.56.16-1.12.3-1.7.4-.55.11-1.14.16-1.75.16-1.58 0-2.72-.48-3.48-1.43-.79-1-1.19-2.36-1.19-4.11 0-1.77.43-3.13 1.27-4.1a4.25 4.25 0 0 1 3.42-1.45c.63 0 1.2.08 1.72.23.44.13.84.27 1.2.43l.73.31L21 21.65l-.44-.22a9.64 9.64 0 0 0-4.36-.93zM26.42 20.71h-2.89V36.7h2.89v-6.99h6.68v6.99h2.89V20.71H33.1v6.34h-6.68zM48.47 20.71h-9.38V36.7h9.38v-2.65l-6.49-.01v-4.35h6.11v-2.64h-6.11v-3.68h6.49z" fill="#FFF"/>
</svg>
