<svg width="58" height="58" xmlns="http://www.w3.org/2000/svg">
  <path d="M29 58c16.016 0 29-12.984 29-29S45.016 0 29 0 0 12.984 0 29s12.984 29 29 29z"/>
  <path d="M39.857 16v3.971h3.336V37.03h-3.336V41H47V16h-7.143zM12 16v25h7.143v-3.971h-3.336V19.97h3.336V16H12z" fill="#FFF"/>
  <path d="M24.838 29.49q0-1.098.162-2.196t.576-2.07q.414-.972 1.17-1.719.756-.747 1.935-1.179 1.179-.432 2.889-.432.378 0 .927.045t.909.099v2.718q-.36-.072-.81-.117-.45-.045-1.098-.045-1.296 0-2.052.387t-1.089 1.116q-.333.729-.387 1.755h.108q.342-.63.927-1.062.585-.432 1.611-.432 1.692 0 2.646 1.089t.954 3.087q0 2.16-1.215 3.366t-3.321 1.206q-1.386 0-2.475-.603-1.089-.603-1.728-1.845t-.639-3.168zm4.77 2.862q.558 0 .9-.423.342-.423.342-1.323 0-.72-.288-1.143-.288-.423-.918-.423-.648 0-.999.441t-.351.945q0 .468.135.909t.432.729q.297.288.747.288z" fill="#FFF"/>
</svg>
