<svg width="58" height="58" xmlns="http://www.w3.org/2000/svg">
  <path d="M29 58c16.016 0 29-12.984 29-29S45.016 0 29 0 0 12.984 0 29s12.984 29 29 29z"/>
  <path d="M39.857 16v3.971h3.336V37.03h-3.336V41H47V16h-7.143zM12 16v25h7.143v-3.971h-3.336V19.97h3.336V16H12z" fill="#FFF"/>
  <path d="M30.058 26.502q1.08 0 1.962.486.882.486 1.404 1.404.522.918.522 2.25 0 2.16-1.296 3.312-1.296 1.152-3.924 1.152-2.232 0-3.672-.702V31.56q.684.306 1.638.558.954.252 1.746.252.954 0 1.476-.414t.522-1.206q0-.72-.531-1.143-.531-.423-1.593-.423-.486 0-.954.099-.468.099-.81.207l-1.278-.63.486-6.786h7.326v2.898h-4.374l-.162 1.692.585-.108q.297-.054.927-.054z" fill="#FFF"/>
</svg>
