<svg width="58" height="58" xmlns="http://www.w3.org/2000/svg">
    <path d="M29 58c16.016 0 29-12.984 29-29S45.016 0 29 0 0 12.984 0 29s12.984 29 29 29z"/>
    <g fill="#FFF">
      <path d="M40.857 15v3.971h3.336V36.03h-3.336V40H48V15h-7.143zM10 15v25h7.143v-3.971h-3.336V18.97h3.336V15H10z"/>
      <path d="M28.204 30.659q.684-1.665.684-3.951 0-2.034-.648-3.312t-1.746-1.89q-1.098-.612-2.43-.612-2.124 0-3.339 1.206-1.215 1.206-1.215 3.348 0 2.016.963 3.105t2.583 1.089q1.098 0 1.665-.423t.927-1.071h.108q-.054.954-.378 1.692t-1.125 1.152q-.801.414-2.241.414-.504 0-.882-.036t-.756-.108v2.754q.36.054.882.072.522.018.918.018 2.394 0 3.87-.891t2.16-2.556zm12.016-4.257h-3.276V23.18h-2.358v3.222H31.31v2.358h3.276v3.168h2.358V28.76h3.276v-2.358zM23.209 24.08q.333-.414.945-.414.45 0 .729.288.279.288.414.72.135.432.135.9 0 .504-.369.954-.369.45-.945.45-.63 0-.936-.423-.306-.423-.306-1.143 0-.918.333-1.332z"/>
    </g>
</svg>
