<svg width="58" height="58" xmlns="http://www.w3.org/2000/svg">
  <path d="M29 58c16.016 0 29-12.984 29-29S45.016 0 29 0 0 12.984 0 29s12.984 29 29 29z"/>
  <path d="M39.857 16v3.971h3.336V37.03h-3.336V41H47V16h-7.143zM12 16v25h7.143v-3.971h-3.336V19.97h3.336V16H12z" fill="#FFF"/>
  <path d="M34.504 32.442h-1.422v2.484h-3.42v-2.484h-5.13v-2.556l5.346-7.812h3.204v7.776h1.422v2.592zm-4.842-2.592v-1.494q0-.27.018-.711.018-.441.036-.801l.018-.378h-.09q-.18.396-.315.648t-.369.612l-1.422 2.124h2.124z" fill="#FFF"/>
</svg>
