<svg version="1.1" id="Layer_1" xmlns="http://www.w3.org/2000/svg" xmlns:xlink="http://www.w3.org/1999/xlink" x="0" y="0" viewBox="0 0 58 58" xml:space="preserve">
  <style>
    .st2{fill-rule:evenodd;clip-rule:evenodd;fill:#fff}
  </style>
  <defs>
    <path id="SVGID_1_" d="M0 0h58v58H0z"/>
  </defs>
  <clipPath id="SVGID_2_">
    <use xlink:href="#SVGID_1_" overflow="visible"/>
  </clipPath>
  <g id="_x31_" clip-path="url(#SVGID_2_)">
    <path id="Oval" d="M29 58c16 0 29-13 29-29S45 0 29 0 0 13 0 29s13 29 29 29z" fill-rule="evenodd" clip-rule="evenodd"/>
    <path id="Fill-1" class="st2" d="M36.9 16v4h3.3v17h-3.3v4H44V16h-7.1z"/>
    <path id="Fill-2" class="st2" d="M15 16v25h7.1v-4h-3.3V20h3.3v-4H15z"/>
    <path d="M31.1 32.2h-1.8v-5-.8-.9l-.3.3c-.1.1-.3.2-.4.3l-1 .8-.9-1.1 2.8-2.2H31v8.6z" fill="#fff"/>
  </g>
</svg>
