<svg width="58" height="58" xmlns="http://www.w3.org/2000/svg">
  <path d="M29 58c16.016 0 29-12.984 29-29S45.016 0 29 0 0 12.984 0 29s12.984 29 29 29z"/>
  <g fill="#FFF">
    <path d="M38.857 16v3.971h3.336V37.03h-3.336V41H46V16h-7.143zM11 16v25h7.143v-3.971h-3.336V19.97h3.336V16H11z" fill-rule="evenodd"/>
    <path d="M33.09 34.926h-9.324V32.64l3.132-3.168q.972-1.026 1.512-1.638.54-.612.765-1.044.225-.432.225-.9 0-.576-.369-.828t-.873-.252q-.612 0-1.224.342t-1.404 1.026l-1.908-2.232q.576-.504 1.224-.981t1.539-.774q.891-.297 2.169-.297 1.296 0 2.259.459.963.459 1.494 1.251.531.792.531 1.8 0 1.116-.405 1.989t-1.224 1.755q-.819.882-2.043 1.98l-.936.846v.09h4.86v2.862z"/>
  </g>
</svg>
