<svg width="58" height="58" xmlns="http://www.w3.org/2000/svg">
  <path d="M29 58c16.016 0 29-12.984 29-29S45.016 0 29 0 0 12.984 0 29s12.984 29 29 29z"/>
  <path d="M39.857 16v3.971h3.336V37.03h-3.336V41H47V16h-7.143zM12 16v25h7.143v-3.971h-3.336V19.97h3.336V16H12z" fill="#FFF"/>
  <path d="M33.658 24.864q0 .918-.396 1.575-.396.657-1.044 1.08-.648.423-1.404.639v.054q1.548.198 2.385.936.837.738.837 2.106 0 1.044-.567 1.926-.567.882-1.755 1.404-1.188.522-3.042.522-1.242 0-2.124-.189-.882-.189-1.71-.513v-2.88q.828.432 1.71.639.882.207 1.62.207 1.278 0 1.737-.36.459-.36.459-.972 0-.432-.225-.738t-.819-.477q-.594-.171-1.692-.171h-.792v-2.61h.81q1.476 0 2.061-.378t.585-.972q0-.522-.396-.765t-1.044-.243q-.594 0-1.098.162-.504.162-.882.351-.378.189-.576.315l-1.44-2.322q.792-.54 1.827-.918t2.709-.378q1.98 0 3.123.792 1.143.792 1.143 2.178z" fill="#FFF"/>
</svg>
