<svg width="58" height="58" xmlns="http://www.w3.org/2000/svg">
  <path d="M29 58c16.016 0 29-12.984 29-29S45.016 0 29 0 0 12.984 0 29s12.984 29 29 29z"/>
  <path d="M39.857 16v3.971h3.336V37.03h-3.336V41H47V16h-7.143zM12 16v25h7.143v-3.971h-3.336V19.97h3.336V16H12z" fill="#FFF"/>
  <path d="M34.162 27.708q0 2.286-.684 3.951t-2.16 2.556q-1.476.891-3.87.891-.396 0-.918-.018t-.882-.072v-2.754q.378.072.756.108.378.036.882.036 1.44 0 2.241-.414.801-.414 1.125-1.152.324-.738.378-1.692h-.108q-.36.648-.927 1.071-.567.423-1.665.423-1.62 0-2.583-1.089-.963-1.089-.963-3.105 0-2.142 1.215-3.348t3.339-1.206q1.332 0 2.43.612t1.746 1.89q.648 1.278.648 3.312zm-4.734-3.042q-.612 0-.945.414-.333.414-.333 1.332 0 .72.306 1.143.306.423.936.423.576 0 .945-.45t.369-.954q0-.468-.135-.9t-.414-.72q-.279-.288-.729-.288z" fill="#FFF"/>
</svg>
