<svg width="58" height="58" xmlns="http://www.w3.org/2000/svg">
  <path d="M29 58c16.016 0 29-12.984 29-29S45.016 0 29 0 0 12.984 0 29s12.984 29 29 29z"/>
  <path d="M39.857 16v3.971h3.336V37.03h-3.336V41H47V16h-7.143zM12 16v25h7.143v-3.971h-3.336V19.97h3.336V16H12z" fill="#FFF"/>
  <path d="M29.536 21.894q1.908 0 3.096.774 1.188.774 1.188 2.358 0 1.152-.621 1.908t-1.593 1.224q.612.342 1.206.801t.99 1.08q.396.621.396 1.467 0 1.044-.504 1.854t-1.539 1.278q-1.035.468-2.655.468-2.448 0-3.564-.99t-1.116-2.574q0-1.332.666-2.07.666-.738 1.674-1.26-.81-.54-1.386-1.314-.576-.774-.576-1.89 0-1.026.558-1.719.558-.693 1.53-1.044.972-.351 2.25-.351zm-.018 2.502q-.432 0-.747.252t-.315.684q0 .414.297.756t.729.576q.378-.216.729-.513.351-.297.351-.819 0-.432-.315-.684-.315-.252-.729-.252zm-1.512 7.002q0 .54.387.873.387.333 1.071.333.792 0 1.17-.306.378-.306.378-.828 0-.396-.234-.72-.234-.324-.549-.558-.315-.234-.531-.36l-.234-.144q-.594.306-1.026.72-.432.414-.432.99z" fill="#FFF"/>
</svg>
