<svg width="58" height="58" xmlns="http://www.w3.org/2000/svg">
  <path d="M29 58c16.016 0 29-12.984 29-29S45.016 0 29 0 0 12.984 0 29s12.984 29 29 29z"/>
  <path d="M42.396 25.282c-.712-3.477 2.053-9.678-7.71-9.26v3.98c6.537-.628 1.425 6.286 4.903 8.59-3.52 2.305 1.634 9.218-4.944 8.59v3.98C48.262 41.748 37.159 30.52 46 30.436v-3.562c.042-.042-2.85.168-3.604-1.592zM15.645 31.86c.712 3.478-2.053 9.72 7.71 9.302v-3.98c-6.537.628-1.425-6.286-4.903-8.59 3.478-2.305-1.634-9.218 4.903-8.59v-3.98C9.779 15.436 20.883 26.664 12 26.748v3.562c0 .042 2.891-.168 3.645 1.55z" fill="#FFF"/>
</svg>
